<?xml version="1.0" standalone="no"?>
<!DOCTYPE svg PUBLIC "-//W3C//DTD SVG 20010904//EN"
 "http://www.w3.org/TR/2001/REC-SVG-20010904/DTD/svg10.dtd">
<svg version="1.0" xmlns="http://www.w3.org/2000/svg"
 width="630.000000pt" height="396.000000pt" viewBox="0 0 630.000000 396.000000"
 preserveAspectRatio="xMidYMid meet">

<g transform="translate(0.000000,396.000000) scale(0.100000,-0.100000)"
fill="#000000" stroke="none">
<path d="M3203 2922 c-10 -6 -76 -137 -233 -467 l-53 -110 -57 121 c-57 121
-76 143 -102 121 -7 -7 -50 -88 -95 -182 -98 -203 -283 -596 -283 -600 0 -3
90 49 238 138 98 58 122 59 203 8 l62 -39 78 48 78 48 41 -29 c47 -34 75 -86
67 -121 -16 -62 -145 -150 -267 -182 -51 -14 -32 -15 281 -15 l335 -1 24 47
c41 81 26 157 -43 231 -17 17 -28 32 -24 32 3 0 40 -22 83 -49 l76 -49 32 19
c34 21 86 25 102 9 20 -20 179 -107 182 -100 2 4 -35 86 -81 181 -47 96 -105
218 -130 272 -57 119 -70 124 -112 37 -16 -33 -32 -57 -36 -53 -7 8 -109 221
-257 538 -71 153 -80 165 -109 147z m64 -209 c25 -54 67 -144 94 -201 27 -56
49 -105 49 -107 0 -3 -34 -5 -77 -5 -66 0 -81 -3 -109 -25 -18 -14 -39 -25
-46 -25 -7 1 -40 25 -72 55 l-60 54 85 175 c46 97 85 176 87 176 2 0 24 -44
49 -97z m-462 -290 c20 -44 23 -58 13 -65 -18 -11 -86 -10 -93 1 -4 8 44 121
51 121 2 0 14 -26 29 -57z m410 -393 c0 -23 -29 -23 -59 1 -21 17 -24 24 -15
35 10 12 16 12 43 -4 17 -10 31 -25 31 -32z m113 -89 c34 -45 42 -81 18 -81
-20 0 -89 99 -82 117 9 22 27 11 64 -36z m32 -161 c0 -20 -74 -100 -92 -100
-25 0 -17 34 18 74 42 48 74 59 74 26z"/>
<path d="M1224 1388 c24 -143 66 -412 66 -419 0 -5 18 -9 40 -9 44 0 44 -2 31
66 -5 27 -19 121 -31 209 -11 88 -23 168 -26 178 -4 12 -16 17 -46 17 l-41 0
7 -42z"/>
<path d="M1385 1418 c-2 -7 -9 -47 -15 -88 -9 -62 -8 -95 7 -192 9 -65 20
-118 23 -118 3 0 18 82 33 183 16 100 31 192 34 205 5 20 2 22 -36 22 -24 0
-43 -5 -46 -12z"/>
<path d="M1535 1300 c-10 -71 -21 -127 -24 -124 -3 3 -11 33 -16 67 l-11 62
-20 -128 c-11 -70 -18 -147 -15 -170 l6 -42 58 -3 57 -3 0 33 c0 18 14 118 30
222 17 104 30 195 30 202 0 9 -13 14 -38 14 l-38 0 -19 -130z"/>
<path d="M1791 1323 c-13 -60 -25 -116 -27 -125 -5 -15 1 -18 35 -18 43 0 44
2 57 73 3 21 8 36 10 34 2 -2 10 -33 17 -70 l14 -66 -71 -3 -71 -3 -17 -70
c-26 -110 -25 -115 22 -115 37 0 39 2 45 38 13 76 7 72 107 72 75 0 89 2 85
15 -4 8 -21 89 -39 180 l-32 165 -57 0 -56 0 -22 -107z"/>
<path d="M2205 1198 l93 -233 41 -3 41 -3 0 235 0 236 -40 0 -40 0 0 -122 -1
-123 -48 120 -48 120 -46 3 -46 3 94 -233z"/>
<path d="M2490 1195 l0 -235 40 0 40 0 0 235 0 235 -40 0 -40 0 0 -235z"/>
<path d="M2600 1391 c0 -39 1 -40 38 -43 l37 -3 0 -145 0 -145 -37 -3 c-38 -3
-38 -4 -38 -48 l0 -44 48 0 c41 0 53 5 80 33 l32 33 0 175 0 175 -28 27 c-23
22 -37 27 -80 27 l-52 0 0 -39z"/>
<path d="M2860 1295 l0 -135 45 0 45 0 0 135 0 135 -45 0 -45 0 0 -135z"/>
<path d="M2980 1390 l0 -40 55 0 55 0 0 40 0 40 -55 0 -55 0 0 -40z"/>
<path d="M3200 1285 l0 -145 40 0 40 0 0 145 0 145 -40 0 -40 0 0 -145z"/>
<path d="M3310 1391 c0 -37 2 -40 33 -43 l32 -3 0 -60 0 -60 -32 -3 c-31 -3
-33 -6 -33 -41 0 -29 5 -40 18 -43 13 -4 24 -29 41 -92 l23 -86 43 0 42 0 -27
100 c-26 97 -27 100 -9 116 16 14 19 32 19 102 0 76 -3 89 -26 119 -22 30 -30
33 -75 33 l-49 0 0 -39z"/>
<path d="M3570 1390 l0 -40 130 0 130 0 0 40 0 40 -130 0 -130 0 0 -40z"/>
<path d="M3940 1285 l0 -145 40 0 40 0 0 145 0 145 -40 0 -40 0 0 -145z"/>
<path d="M4050 1391 c0 -37 2 -40 33 -43 l32 -3 0 -60 0 -60 -32 -3 c-31 -3
-33 -6 -33 -43 0 -28 4 -39 15 -39 19 0 28 -20 50 -107 l19 -73 44 0 c37 0 43
3 38 17 -4 9 -16 54 -28 100 -19 77 -19 85 -4 102 12 13 16 38 16 107 0 86 -1
92 -28 117 -22 21 -38 27 -75 27 l-47 0 0 -39z"/>
<path d="M4320 1320 l0 -110 40 0 40 0 0 110 0 110 -40 0 -40 0 0 -110z"/>
<path d="M4500 1295 l0 -135 40 0 40 0 0 135 0 135 -40 0 -40 0 0 -135z"/>
<path d="M4620 1391 c0 -36 3 -40 28 -43 23 -3 27 -8 30 -41 4 -43 -11 -67
-39 -67 -15 0 -19 -8 -19 -40 0 -27 4 -40 13 -40 26 0 49 -37 45 -72 -2 -28
-7 -34 -30 -36 -26 -3 -28 -7 -28 -48 l0 -44 38 0 c30 0 45 7 70 33 29 30 32
38 32 99 0 46 -4 69 -15 78 -8 7 -15 18 -15 25 0 7 7 18 15 25 10 9 15 32 15
77 0 55 -4 69 -27 99 -24 29 -34 34 -70 34 l-43 0 0 -39z"/>
<path d="M4870 1295 l0 -135 40 0 40 0 0 135 0 135 -40 0 -40 0 0 -135z"/>
<path d="M4980 1390 l0 -40 55 0 55 0 0 40 0 40 -55 0 -55 0 0 -40z"/>
<path d="M2110 1153 l0 -193 40 0 40 0 0 93 c0 84 -4 101 -40 192 l-39 100 -1
-192z"/>
<path d="M3662 1143 l3 -178 43 -3 42 -3 0 180 0 181 -45 0 -45 0 2 -177z"/>
<path d="M2980 1200 c0 -39 1 -40 35 -40 34 0 35 1 35 40 0 39 -1 40 -35 40
-34 0 -35 -1 -35 -40z"/>
<path d="M4980 1200 c0 -39 1 -40 35 -40 34 0 35 1 35 40 0 39 -1 40 -35 40
-34 0 -35 -1 -35 -40z"/>
<path d="M4320 1070 l0 -110 40 0 40 0 0 110 0 110 -40 0 -40 0 0 -110z"/>
<path d="M2860 1040 l0 -80 45 0 45 0 0 80 0 80 -45 0 -45 0 0 -80z"/>
<path d="M4500 1040 l0 -80 40 0 40 0 0 80 0 80 -40 0 -40 0 0 -80z"/>
<path d="M4870 1040 l0 -80 40 0 40 0 0 80 0 80 -40 0 -40 0 0 -80z"/>
<path d="M3200 1035 l0 -75 40 0 40 0 0 75 0 75 -40 0 -40 0 0 -75z"/>
<path d="M3940 1035 l0 -75 40 0 40 0 0 75 0 75 -40 0 -40 0 0 -75z"/>
<path d="M2980 1005 l0 -45 55 0 55 0 0 45 0 45 -55 0 -55 0 0 -45z"/>
<path d="M4980 1005 l0 -45 55 0 55 0 0 45 0 45 -55 0 -55 0 0 -45z"/>
<path d="M1926 1010 c11 -48 13 -50 54 -50 l42 0 -7 33 c-10 45 -11 46 -55 44
-37 -1 -39 -3 -34 -27z"/>
</g>
</svg>
